<mxfile host="app.diagrams.net" modified="2020-08-13T19:36:16.819Z" agent="5.0 (X11)" etag="zuDl1WnJMuiJeLyeUIzH" version="13.6.2" type="gitlab">
  <diagram id="0lj_eg0Q6D7ukaS-7_Nz" name="Page-1">
    <mxGraphModel dx="2370" dy="1230" grid="0" gridSize="10" guides="1" tooltips="1" connect="1" arrows="1" fold="1" page="1" pageScale="1" pageWidth="1654" pageHeight="1169" math="0" shadow="0">
      <root>
        <mxCell id="0" />
        <mxCell id="1" parent="0" />
        <mxCell id="BaOSMcTjKNIHR1Z5g75Z-5" value="" style="strokeWidth=2;html=1;shape=mxgraph.flowchart.annotation_2;align=left;labelPosition=right;pointerEvents=1;rotation=90;" vertex="1" parent="1">
          <mxGeometry x="1057" y="239" width="50" height="328" as="geometry" />
        </mxCell>
        <mxCell id="BaOSMcTjKNIHR1Z5g75Z-6" value="" style="verticalLabelPosition=bottom;verticalAlign=top;html=1;shape=mxgraph.basic.acute_triangle;dx=0.5;" vertex="1" parent="1">
          <mxGeometry x="1065.5" y="352" width="33" height="26" as="geometry" />
        </mxCell>
        <mxCell id="BaOSMcTjKNIHR1Z5g75Z-24" value="" style="strokeWidth=2;html=1;shape=mxgraph.flowchart.annotation_1;align=left;pointerEvents=1;fillColor=#ffffff;" vertex="1" parent="1">
          <mxGeometry x="402" y="473" width="35" height="100" as="geometry" />
        </mxCell>
        <mxCell id="BaOSMcTjKNIHR1Z5g75Z-25" value="es previa de" style="text;html=1;strokeColor=none;fillColor=none;align=center;verticalAlign=middle;whiteSpace=wrap;rounded=0;" vertex="1" parent="1">
          <mxGeometry x="313" y="487" width="89" height="14" as="geometry" />
        </mxCell>
        <mxCell id="BaOSMcTjKNIHR1Z5g75Z-26" value="" style="endArrow=none;html=1;" edge="1" parent="1">
          <mxGeometry width="50" height="50" relative="1" as="geometry">
            <mxPoint x="598" y="462" as="sourcePoint" />
            <mxPoint x="833" y="462" as="targetPoint" />
          </mxGeometry>
        </mxCell>
        <mxCell id="BaOSMcTjKNIHR1Z5g75Z-27" value="registra" style="text;html=1;strokeColor=none;fillColor=none;align=center;verticalAlign=middle;whiteSpace=wrap;rounded=0;" vertex="1" parent="1">
          <mxGeometry x="700" y="439" width="40" height="20" as="geometry" />
        </mxCell>
        <mxCell id="BaOSMcTjKNIHR1Z5g75Z-28" value="" style="endArrow=none;html=1;" edge="1" parent="1" target="BaOSMcTjKNIHR1Z5g75Z-7">
          <mxGeometry width="50" height="50" relative="1" as="geometry">
            <mxPoint x="608" y="283" as="sourcePoint" />
            <mxPoint x="737" y="395" as="targetPoint" />
          </mxGeometry>
        </mxCell>
        <mxCell id="BaOSMcTjKNIHR1Z5g75Z-30" value="" style="endArrow=none;html=1;exitX=0.438;exitY=0.006;exitDx=0;exitDy=0;exitPerimeter=0;entryX=0.395;entryY=1.069;entryDx=0;entryDy=0;entryPerimeter=0;" edge="1" parent="1" source="BaOSMcTjKNIHR1Z5g75Z-19" target="BaOSMcTjKNIHR1Z5g75Z-17">
          <mxGeometry width="50" height="50" relative="1" as="geometry">
            <mxPoint x="508" y="396" as="sourcePoint" />
            <mxPoint x="508" y="340" as="targetPoint" />
          </mxGeometry>
        </mxCell>
        <mxCell id="BaOSMcTjKNIHR1Z5g75Z-31" value="integra" style="text;html=1;strokeColor=none;fillColor=none;align=center;verticalAlign=middle;whiteSpace=wrap;rounded=0;" vertex="1" parent="1">
          <mxGeometry x="719" y="314" width="40" height="20" as="geometry" />
        </mxCell>
        <mxCell id="BaOSMcTjKNIHR1Z5g75Z-32" value="contiene" style="text;html=1;strokeColor=none;fillColor=none;align=center;verticalAlign=middle;whiteSpace=wrap;rounded=0;" vertex="1" parent="1">
          <mxGeometry x="519" y="355" width="40" height="20" as="geometry" />
        </mxCell>
        <mxCell id="BaOSMcTjKNIHR1Z5g75Z-39" style="edgeStyle=orthogonalEdgeStyle;rounded=0;orthogonalLoop=1;jettySize=auto;html=1;exitX=0.5;exitY=0;exitDx=0;exitDy=0;entryX=0.25;entryY=0;entryDx=0;entryDy=0;endArrow=none;endFill=0;" edge="1" parent="1" source="BaOSMcTjKNIHR1Z5g75Z-36" target="BaOSMcTjKNIHR1Z5g75Z-7">
          <mxGeometry relative="1" as="geometry">
            <Array as="points">
              <mxPoint x="299" y="383" />
              <mxPoint x="299" y="354" />
              <mxPoint x="323" y="354" />
              <mxPoint x="323" y="199" />
              <mxPoint x="875" y="199" />
            </Array>
          </mxGeometry>
        </mxCell>
        <mxCell id="BaOSMcTjKNIHR1Z5g75Z-43" style="edgeStyle=orthogonalEdgeStyle;rounded=0;orthogonalLoop=1;jettySize=auto;html=1;exitX=0.25;exitY=0;exitDx=0;exitDy=0;entryX=0.884;entryY=0;entryDx=0;entryDy=0;entryPerimeter=0;endArrow=none;endFill=0;" edge="1" parent="1" source="BaOSMcTjKNIHR1Z5g75Z-36" target="BaOSMcTjKNIHR1Z5g75Z-41">
          <mxGeometry relative="1" as="geometry">
            <Array as="points">
              <mxPoint x="285" y="144" />
              <mxPoint x="1293" y="144" />
            </Array>
          </mxGeometry>
        </mxCell>
        <mxCell id="BaOSMcTjKNIHR1Z5g75Z-52" value="EstudianteEdicion" style="swimlane;fontStyle=0;childLayout=stackLayout;horizontal=1;startSize=26;fillColor=none;horizontalStack=0;resizeParent=1;resizeParentMax=0;resizeLast=0;collapsible=1;marginBottom=0;" vertex="1" parent="1">
          <mxGeometry x="690" y="52" width="187" height="44" as="geometry" />
        </mxCell>
        <mxCell id="BaOSMcTjKNIHR1Z5g75Z-54" value="fechaInscripcion: DtFecha" style="text;html=1;align=center;verticalAlign=middle;resizable=0;points=[];autosize=1;" vertex="1" parent="BaOSMcTjKNIHR1Z5g75Z-52">
          <mxGeometry y="26" width="187" height="18" as="geometry" />
        </mxCell>
        <mxCell id="BaOSMcTjKNIHR1Z5g75Z-33" value="&lt;div style=&quot;font-size: 13px&quot; align=&quot;left&quot;&gt;&lt;font style=&quot;font-size: 13px&quot;&gt;&lt;b&gt;&lt;font style=&quot;font-size: 13px&quot;&gt;RESTRICCIONES NO ESTRUCTURALES:&lt;/font&gt;&lt;/b&gt;&lt;/font&gt;&lt;/div&gt;&lt;div style=&quot;font-size: 13px&quot; align=&quot;left&quot;&gt;&lt;font style=&quot;font-size: 13px&quot;&gt;&lt;br&gt;&lt;/font&gt;&lt;/div&gt;&lt;div style=&quot;font-size: 13px&quot; align=&quot;left&quot;&gt;&lt;font style=&quot;font-size: 13px&quot;&gt;&lt;b&gt;&lt;font style=&quot;font-size: 13px&quot;&gt;Unicidad de atributos:&lt;/font&gt;&lt;/b&gt;&lt;/font&gt;&lt;/div&gt;&lt;ul style=&quot;font-size: 13px&quot;&gt;&lt;li&gt;&lt;font style=&quot;font-size: 13px&quot;&gt;Los usuarios se identifican por su nickname.&lt;/font&gt;&lt;/li&gt;&lt;li&gt;&lt;font style=&quot;font-size: 13px&quot;&gt;Los institutos se identifican por su nombre.&lt;/font&gt;&lt;/li&gt;&lt;li&gt;&lt;font style=&quot;font-size: 13px&quot;&gt;Los cursos se identifican por su nombre.&lt;/font&gt;&lt;/li&gt;&lt;li&gt;&lt;font style=&quot;font-size: 13px&quot;&gt;Las ediciones de cursos se identifican por su nombre.&lt;/font&gt;&lt;/li&gt;&lt;li&gt;&lt;font style=&quot;font-size: 13px&quot;&gt;Los programas de formación se identifican por su nombre.&lt;/font&gt;&lt;/li&gt;&lt;/ul&gt;&lt;div style=&quot;font-size: 13px&quot;&gt;&lt;font style=&quot;font-size: 13px&quot;&gt;&lt;b&gt;Dominio de atributos:&lt;/b&gt;&lt;/font&gt;&lt;/div&gt;&lt;div style=&quot;font-size: 13px&quot;&gt;&lt;ul&gt;&lt;li&gt;&lt;font style=&quot;font-size: 13px&quot;&gt;Para todo DtFecha, dia, mes, anio, seg, min, hora deben estar dentro del tango correspondiente a las fechas. Entonces día entre 1..31, mes entre 1..12, anio entre 1930 y el actual, hora entre 0..23, minuto entre 0...59 y seg entre 0...59.&lt;br&gt;&lt;/font&gt;&lt;/li&gt;&lt;/ul&gt;&lt;/div&gt;&lt;div style=&quot;font-size: 13px&quot; align=&quot;left&quot;&gt;&lt;font style=&quot;font-size: 13px&quot;&gt;&lt;br&gt;&lt;/font&gt;&lt;/div&gt;&lt;div style=&quot;font-size: 13px&quot; align=&quot;left&quot;&gt;&lt;font style=&quot;font-size: 13px&quot;&gt;&lt;b&gt;&lt;font style=&quot;font-size: 13px&quot;&gt;Dependencias circulares:&lt;/font&gt;&lt;/b&gt;&lt;/font&gt;&lt;/div&gt;&lt;div style=&quot;font-size: 13px&quot; align=&quot;left&quot;&gt;&lt;ul&gt;&lt;li&gt;&lt;font style=&quot;font-size: 13px&quot;&gt;Solo se pueden registrar cursos asociados al Instituto que integran.&lt;/font&gt;&lt;/li&gt;&lt;/ul&gt;&lt;/div&gt;&lt;div style=&quot;font-size: 11px&quot; align=&quot;left&quot;&gt; &lt;font style=&quot;font-size: 11px&quot;&gt;&lt;span style=&quot;left: 596.461px ; top: 846.264px ; font-family: sans-serif ; transform: scalex(0.892856)&quot;&gt;&lt;br&gt;&lt;/span&gt;&lt;/font&gt;&lt;/div&gt;&lt;div style=&quot;font-size: 11px&quot; align=&quot;left&quot;&gt;&lt;br&gt;&lt;/div&gt;" style="text;html=1;strokeColor=none;fillColor=none;align=left;verticalAlign=middle;whiteSpace=wrap;rounded=0;fontFamily=Arial;" vertex="1" parent="1">
          <mxGeometry x="44.5" y="827" width="579.5" height="307" as="geometry" />
        </mxCell>
        <mxCell id="BaOSMcTjKNIHR1Z5g75Z-40" value="participa" style="text;html=1;strokeColor=none;fillColor=none;align=center;verticalAlign=middle;whiteSpace=wrap;rounded=0;" vertex="1" parent="1">
          <mxGeometry x="650" y="176" width="40" height="20" as="geometry" />
        </mxCell>
        <mxCell id="BaOSMcTjKNIHR1Z5g75Z-44" value="se inscribe" style="text;html=1;strokeColor=none;fillColor=none;align=center;verticalAlign=middle;whiteSpace=wrap;rounded=0;" vertex="1" parent="1">
          <mxGeometry x="749" y="149" width="78" height="20" as="geometry" />
        </mxCell>
        <mxCell id="BaOSMcTjKNIHR1Z5g75Z-1" value="Usuario" style="swimlane;fontStyle=0;childLayout=stackLayout;horizontal=1;startSize=26;fillColor=none;horizontalStack=0;resizeParent=1;resizeParentMax=0;resizeLast=0;collapsible=1;marginBottom=0;" vertex="1" parent="1">
          <mxGeometry x="996" y="188" width="166" height="162" as="geometry" />
        </mxCell>
        <mxCell id="BaOSMcTjKNIHR1Z5g75Z-2" value="nickname: string" style="text;strokeColor=none;fillColor=none;align=left;verticalAlign=top;spacingLeft=4;spacingRight=4;overflow=hidden;rotatable=0;points=[[0,0.5],[1,0.5]];portConstraint=eastwest;" vertex="1" parent="BaOSMcTjKNIHR1Z5g75Z-1">
          <mxGeometry y="26" width="166" height="26" as="geometry" />
        </mxCell>
        <mxCell id="BaOSMcTjKNIHR1Z5g75Z-3" value="nombre: string" style="text;strokeColor=none;fillColor=none;align=left;verticalAlign=top;spacingLeft=4;spacingRight=4;overflow=hidden;rotatable=0;points=[[0,0.5],[1,0.5]];portConstraint=eastwest;" vertex="1" parent="BaOSMcTjKNIHR1Z5g75Z-1">
          <mxGeometry y="52" width="166" height="26" as="geometry" />
        </mxCell>
        <mxCell id="BaOSMcTjKNIHR1Z5g75Z-4" value="apellido: string&#xa;&#xa;correo: string&#xa;&#xa;fechaNacimiento: DtFecha&#xa;&#xa;" style="text;strokeColor=none;fillColor=none;align=left;verticalAlign=top;spacingLeft=4;spacingRight=4;overflow=hidden;rotatable=0;points=[[0,0.5],[1,0.5]];portConstraint=eastwest;" vertex="1" parent="BaOSMcTjKNIHR1Z5g75Z-1">
          <mxGeometry y="78" width="166" height="84" as="geometry" />
        </mxCell>
        <mxCell id="BaOSMcTjKNIHR1Z5g75Z-7" value="Docente" style="swimlane;fontStyle=0;childLayout=stackLayout;horizontal=1;startSize=26;fillColor=none;horizontalStack=0;resizeParent=1;resizeParentMax=0;resizeLast=0;collapsible=1;marginBottom=0;" vertex="1" parent="1">
          <mxGeometry x="835" y="428" width="159" height="54" as="geometry" />
        </mxCell>
        <mxCell id="BaOSMcTjKNIHR1Z5g75Z-47" style="edgeStyle=orthogonalEdgeStyle;rounded=0;orthogonalLoop=1;jettySize=auto;html=1;endArrow=diamondThin;endFill=0;exitX=0.449;exitY=1.003;exitDx=0;exitDy=0;exitPerimeter=0;startArrow=none;startFill=0;targetPerimeterSpacing=1;endSize=19;" edge="1" parent="1" source="BaOSMcTjKNIHR1Z5g75Z-22" target="BaOSMcTjKNIHR1Z5g75Z-46">
          <mxGeometry relative="1" as="geometry">
            <mxPoint x="518" y="668" as="sourcePoint" />
          </mxGeometry>
        </mxCell>
        <mxCell id="BaOSMcTjKNIHR1Z5g75Z-19" value="Curso" style="swimlane;fontStyle=0;childLayout=stackLayout;horizontal=1;startSize=26;fillColor=none;horizontalStack=0;resizeParent=1;resizeParentMax=0;resizeLast=0;collapsible=1;marginBottom=0;" vertex="1" parent="1">
          <mxGeometry x="437" y="428" width="161" height="226" as="geometry" />
        </mxCell>
        <mxCell id="BaOSMcTjKNIHR1Z5g75Z-21" value="nombre: string" style="text;strokeColor=none;fillColor=none;align=left;verticalAlign=top;spacingLeft=4;spacingRight=4;overflow=hidden;rotatable=0;points=[[0,0.5],[1,0.5]];portConstraint=eastwest;" vertex="1" parent="BaOSMcTjKNIHR1Z5g75Z-19">
          <mxGeometry y="26" width="161" height="26" as="geometry" />
        </mxCell>
        <mxCell id="BaOSMcTjKNIHR1Z5g75Z-22" value="descripcion: string&#xa;&#xa;duracion: int&#xa;&#xa;cantHoras: int&#xa;&#xa;cantCreditos: int&#xa;&#xa;fechaRegistro: DtFecha&#xa;&#xa;url: string" style="text;strokeColor=none;fillColor=none;align=left;verticalAlign=top;spacingLeft=4;spacingRight=4;overflow=hidden;rotatable=0;points=[[0,0.5],[1,0.5]];portConstraint=eastwest;" vertex="1" parent="BaOSMcTjKNIHR1Z5g75Z-19">
          <mxGeometry y="52" width="161" height="174" as="geometry" />
        </mxCell>
        <mxCell id="BaOSMcTjKNIHR1Z5g75Z-15" value="Instituto" style="swimlane;fontStyle=0;childLayout=stackLayout;horizontal=1;startSize=26;fillColor=none;horizontalStack=0;resizeParent=1;resizeParentMax=0;resizeLast=0;collapsible=1;marginBottom=0;" vertex="1" parent="1">
          <mxGeometry x="442" y="259" width="166" height="51" as="geometry" />
        </mxCell>
        <mxCell id="BaOSMcTjKNIHR1Z5g75Z-17" value="nombre: string" style="text;strokeColor=none;fillColor=none;align=left;verticalAlign=top;spacingLeft=4;spacingRight=4;overflow=hidden;rotatable=0;points=[[0,0.5],[1,0.5]];portConstraint=eastwest;" vertex="1" parent="BaOSMcTjKNIHR1Z5g75Z-15">
          <mxGeometry y="26" width="166" height="25" as="geometry" />
        </mxCell>
        <mxCell id="BaOSMcTjKNIHR1Z5g75Z-41" value="Estudiante" style="swimlane;fontStyle=0;childLayout=stackLayout;horizontal=1;startSize=26;fillColor=none;horizontalStack=0;resizeParent=1;resizeParentMax=0;resizeLast=0;collapsible=1;marginBottom=0;" vertex="1" parent="1">
          <mxGeometry x="1152" y="428" width="159" height="54" as="geometry" />
        </mxCell>
        <mxCell id="BaOSMcTjKNIHR1Z5g75Z-45" value="ProgramaDeFormacion" style="swimlane;fontStyle=0;childLayout=stackLayout;horizontal=1;startSize=26;fillColor=none;horizontalStack=0;resizeParent=1;resizeParentMax=0;resizeLast=0;collapsible=1;marginBottom=0;" vertex="1" parent="1">
          <mxGeometry x="765" y="611" width="229" height="156" as="geometry" />
        </mxCell>
        <mxCell id="BaOSMcTjKNIHR1Z5g75Z-46" value="nombre: string&#xa;&#xa;descripcion: string&#xa;&#xa;fechaInicio: DtFecha&#xa;&#xa;fechaFin: DtFecha&#xa;" style="text;strokeColor=none;fillColor=none;align=left;verticalAlign=top;spacingLeft=4;spacingRight=4;overflow=hidden;rotatable=0;points=[[0,0.5],[1,0.5]];portConstraint=eastwest;" vertex="1" parent="BaOSMcTjKNIHR1Z5g75Z-45">
          <mxGeometry y="26" width="229" height="130" as="geometry" />
        </mxCell>
        <mxCell id="BaOSMcTjKNIHR1Z5g75Z-48" style="edgeStyle=orthogonalEdgeStyle;rounded=0;orthogonalLoop=1;jettySize=auto;html=1;exitX=1;exitY=0.5;exitDx=0;exitDy=0;entryX=0.5;entryY=1;entryDx=0;entryDy=0;endArrow=none;endFill=0;" edge="1" parent="1" source="BaOSMcTjKNIHR1Z5g75Z-46" target="BaOSMcTjKNIHR1Z5g75Z-41">
          <mxGeometry relative="1" as="geometry" />
        </mxCell>
        <mxCell id="BaOSMcTjKNIHR1Z5g75Z-49" value="contiene" style="text;html=1;strokeColor=none;fillColor=none;align=center;verticalAlign=middle;whiteSpace=wrap;rounded=0;" vertex="1" parent="1">
          <mxGeometry x="627" y="679" width="40" height="20" as="geometry" />
        </mxCell>
        <mxCell id="BaOSMcTjKNIHR1Z5g75Z-55" value="" style="endArrow=none;dashed=1;html=1;entryX=0.49;entryY=1.13;entryDx=0;entryDy=0;entryPerimeter=0;" edge="1" parent="1" target="BaOSMcTjKNIHR1Z5g75Z-54">
          <mxGeometry width="50" height="50" relative="1" as="geometry">
            <mxPoint x="782" y="143" as="sourcePoint" />
            <mxPoint x="743" y="260" as="targetPoint" />
          </mxGeometry>
        </mxCell>
        <mxCell id="BaOSMcTjKNIHR1Z5g75Z-56" value="EstudiantePF" style="swimlane;fontStyle=0;childLayout=stackLayout;horizontal=1;startSize=26;fillColor=none;horizontalStack=0;resizeParent=1;resizeParentMax=0;resizeLast=0;collapsible=1;marginBottom=0;" vertex="1" parent="1">
          <mxGeometry x="1281" y="590" width="187" height="44" as="geometry" />
        </mxCell>
        <mxCell id="BaOSMcTjKNIHR1Z5g75Z-57" value="fechaInscripcion: DtFecha" style="text;html=1;align=center;verticalAlign=middle;resizable=0;points=[];autosize=1;" vertex="1" parent="BaOSMcTjKNIHR1Z5g75Z-56">
          <mxGeometry y="26" width="187" height="18" as="geometry" />
        </mxCell>
        <mxCell id="BaOSMcTjKNIHR1Z5g75Z-58" value="" style="endArrow=none;dashed=1;html=1;entryX=0;entryY=0.5;entryDx=0;entryDy=0;" edge="1" parent="1" target="BaOSMcTjKNIHR1Z5g75Z-56">
          <mxGeometry width="50" height="50" relative="1" as="geometry">
            <mxPoint x="1234" y="612" as="sourcePoint" />
            <mxPoint x="1115" y="435" as="targetPoint" />
          </mxGeometry>
        </mxCell>
        <mxCell id="BaOSMcTjKNIHR1Z5g75Z-59" value="&#xa;&lt;&lt;DataType&gt;&gt;&#xa;DtFecha&#xa;" style="swimlane;fontStyle=0;childLayout=stackLayout;horizontal=1;startSize=45;fillColor=none;horizontalStack=0;resizeParent=1;resizeParentMax=0;resizeLast=0;collapsible=1;marginBottom=0;" vertex="1" parent="1">
          <mxGeometry x="1273" y="751" width="140" height="123" as="geometry" />
        </mxCell>
        <mxCell id="BaOSMcTjKNIHR1Z5g75Z-60" value="dia: int" style="text;strokeColor=none;fillColor=none;align=left;verticalAlign=top;spacingLeft=4;spacingRight=4;overflow=hidden;rotatable=0;points=[[0,0.5],[1,0.5]];portConstraint=eastwest;" vertex="1" parent="BaOSMcTjKNIHR1Z5g75Z-59">
          <mxGeometry y="45" width="140" height="26" as="geometry" />
        </mxCell>
        <mxCell id="BaOSMcTjKNIHR1Z5g75Z-61" value="mes: int" style="text;strokeColor=none;fillColor=none;align=left;verticalAlign=top;spacingLeft=4;spacingRight=4;overflow=hidden;rotatable=0;points=[[0,0.5],[1,0.5]];portConstraint=eastwest;" vertex="1" parent="BaOSMcTjKNIHR1Z5g75Z-59">
          <mxGeometry y="71" width="140" height="26" as="geometry" />
        </mxCell>
        <mxCell id="BaOSMcTjKNIHR1Z5g75Z-62" value="año: int" style="text;strokeColor=none;fillColor=none;align=left;verticalAlign=top;spacingLeft=4;spacingRight=4;overflow=hidden;rotatable=0;points=[[0,0.5],[1,0.5]];portConstraint=eastwest;" vertex="1" parent="BaOSMcTjKNIHR1Z5g75Z-59">
          <mxGeometry y="97" width="140" height="26" as="geometry" />
        </mxCell>
        <mxCell id="BaOSMcTjKNIHR1Z5g75Z-64" value="se inscribe" style="text;html=1;strokeColor=none;fillColor=none;align=center;verticalAlign=middle;whiteSpace=wrap;rounded=0;" vertex="1" parent="1">
          <mxGeometry x="1134" y="675" width="78" height="20" as="geometry" />
        </mxCell>
        <mxCell id="BaOSMcTjKNIHR1Z5g75Z-65" value="1..*" style="text;html=1;strokeColor=none;fillColor=none;align=center;verticalAlign=middle;whiteSpace=wrap;rounded=0;" vertex="1" parent="1">
          <mxGeometry x="797" y="411" width="40" height="20" as="geometry" />
        </mxCell>
        <mxCell id="BaOSMcTjKNIHR1Z5g75Z-66" value="*" style="text;html=1;strokeColor=none;fillColor=none;align=center;verticalAlign=middle;whiteSpace=wrap;rounded=0;" vertex="1" parent="1">
          <mxGeometry x="598" y="267" width="40" height="20" as="geometry" />
        </mxCell>
        <mxCell id="BaOSMcTjKNIHR1Z5g75Z-67" value="*" style="text;html=1;strokeColor=none;fillColor=none;align=center;verticalAlign=middle;whiteSpace=wrap;rounded=0;" vertex="1" parent="1">
          <mxGeometry x="598" y="467" width="40" height="23" as="geometry" />
        </mxCell>
        <mxCell id="BaOSMcTjKNIHR1Z5g75Z-69" value="1" style="text;html=1;strokeColor=none;fillColor=none;align=center;verticalAlign=middle;whiteSpace=wrap;rounded=0;" vertex="1" parent="1">
          <mxGeometry x="792" y="465" width="40" height="20" as="geometry" />
        </mxCell>
        <mxCell id="BaOSMcTjKNIHR1Z5g75Z-70" value="*" style="text;html=1;strokeColor=none;fillColor=none;align=center;verticalAlign=middle;whiteSpace=wrap;rounded=0;" vertex="1" parent="1">
          <mxGeometry x="400" y="451" width="40" height="20" as="geometry" />
        </mxCell>
        <mxCell id="BaOSMcTjKNIHR1Z5g75Z-71" value="*" style="text;html=1;strokeColor=none;fillColor=none;align=center;verticalAlign=middle;whiteSpace=wrap;rounded=0;" vertex="1" parent="1">
          <mxGeometry x="402" y="575" width="40" height="20" as="geometry" />
        </mxCell>
        <mxCell id="BaOSMcTjKNIHR1Z5g75Z-72" value="1" style="text;html=1;strokeColor=none;fillColor=none;align=center;verticalAlign=middle;whiteSpace=wrap;rounded=0;" vertex="1" parent="1">
          <mxGeometry x="508" y="314" width="40" height="20" as="geometry" />
        </mxCell>
        <mxCell id="BaOSMcTjKNIHR1Z5g75Z-73" value="1..*" style="text;html=1;strokeColor=none;fillColor=none;align=center;verticalAlign=middle;whiteSpace=wrap;rounded=0;" vertex="1" parent="1">
          <mxGeometry x="508" y="405" width="40" height="20" as="geometry" />
        </mxCell>
        <mxCell id="BaOSMcTjKNIHR1Z5g75Z-74" value="1..*" style="text;html=1;strokeColor=none;fillColor=none;align=center;verticalAlign=middle;whiteSpace=wrap;rounded=0;" vertex="1" parent="1">
          <mxGeometry x="508" y="659" width="40" height="20" as="geometry" />
        </mxCell>
        <mxCell id="BaOSMcTjKNIHR1Z5g75Z-75" value="*" style="text;html=1;strokeColor=none;fillColor=none;align=center;verticalAlign=middle;whiteSpace=wrap;rounded=0;" vertex="1" parent="1">
          <mxGeometry x="721" y="675" width="40" height="20" as="geometry" />
        </mxCell>
        <mxCell id="BaOSMcTjKNIHR1Z5g75Z-76" value="*" style="text;html=1;strokeColor=none;fillColor=none;align=center;verticalAlign=middle;whiteSpace=wrap;rounded=0;" vertex="1" parent="1">
          <mxGeometry x="1190" y="487" width="40" height="20" as="geometry" />
        </mxCell>
        <mxCell id="BaOSMcTjKNIHR1Z5g75Z-77" value="*" style="text;html=1;strokeColor=none;fillColor=none;align=center;verticalAlign=middle;whiteSpace=wrap;rounded=0;" vertex="1" parent="1">
          <mxGeometry x="996" y="675" width="40" height="20" as="geometry" />
        </mxCell>
        <mxCell id="BaOSMcTjKNIHR1Z5g75Z-78" value="*" style="text;html=1;strokeColor=none;fillColor=none;align=center;verticalAlign=middle;whiteSpace=wrap;rounded=0;" vertex="1" parent="1">
          <mxGeometry x="1292" y="405" width="40" height="20" as="geometry" />
        </mxCell>
        <mxCell id="BaOSMcTjKNIHR1Z5g75Z-79" value="*" style="text;html=1;strokeColor=none;fillColor=none;align=center;verticalAlign=middle;whiteSpace=wrap;rounded=0;" vertex="1" parent="1">
          <mxGeometry x="219" y="358" width="40" height="20" as="geometry" />
        </mxCell>
        <mxCell id="BaOSMcTjKNIHR1Z5g75Z-81" value="1..*" style="text;html=1;strokeColor=none;fillColor=none;align=center;verticalAlign=middle;whiteSpace=wrap;rounded=0;" vertex="1" parent="1">
          <mxGeometry x="842" y="396" width="40" height="20" as="geometry" />
        </mxCell>
        <mxCell id="BaOSMcTjKNIHR1Z5g75Z-82" value="*" style="text;html=1;strokeColor=none;fillColor=none;align=center;verticalAlign=middle;whiteSpace=wrap;rounded=0;" vertex="1" parent="1">
          <mxGeometry x="292" y="358" width="40" height="20" as="geometry" />
        </mxCell>
        <mxCell id="BaOSMcTjKNIHR1Z5g75Z-83" value="" style="triangle;whiteSpace=wrap;html=1;strokeWidth=1;rotation=90;fillColor=#0A0A0A;" vertex="1" parent="1">
          <mxGeometry x="530" y="375" width="11" height="14" as="geometry" />
        </mxCell>
        <mxCell id="BaOSMcTjKNIHR1Z5g75Z-84" value="" style="triangle;whiteSpace=wrap;html=1;strokeWidth=1;rotation=90;fillColor=#0A0A0A;" vertex="1" parent="1">
          <mxGeometry x="375" y="506" width="11" height="14" as="geometry" />
        </mxCell>
        <mxCell id="BaOSMcTjKNIHR1Z5g75Z-85" value="" style="triangle;whiteSpace=wrap;html=1;strokeWidth=1;rotation=-180;fillColor=#0A0A0A;" vertex="1" parent="1">
          <mxGeometry x="608" y="681" width="11" height="14" as="geometry" />
        </mxCell>
        <mxCell id="BaOSMcTjKNIHR1Z5g75Z-86" value="" style="triangle;whiteSpace=wrap;html=1;strokeWidth=1;rotation=-180;fillColor=#0A0A0A;" vertex="1" parent="1">
          <mxGeometry x="1126" y="678" width="11" height="14" as="geometry" />
        </mxCell>
        <mxCell id="BaOSMcTjKNIHR1Z5g75Z-87" value="" style="triangle;whiteSpace=wrap;html=1;strokeWidth=1;rotation=-180;fillColor=#0A0A0A;" vertex="1" parent="1">
          <mxGeometry x="738" y="149" width="11" height="14" as="geometry" />
        </mxCell>
        <mxCell id="BaOSMcTjKNIHR1Z5g75Z-88" value="" style="triangle;whiteSpace=wrap;html=1;strokeWidth=1;rotation=-180;fillColor=#0A0A0A;" vertex="1" parent="1">
          <mxGeometry x="624" y="179" width="11" height="14" as="geometry" />
        </mxCell>
        <mxCell id="BaOSMcTjKNIHR1Z5g75Z-89" value="" style="triangle;whiteSpace=wrap;html=1;strokeWidth=1;rotation=-180;fillColor=#0A0A0A;" vertex="1" parent="1">
          <mxGeometry x="679" y="442" width="11" height="14" as="geometry" />
        </mxCell>
        <mxCell id="BaOSMcTjKNIHR1Z5g75Z-90" value="" style="triangle;whiteSpace=wrap;html=1;strokeWidth=1;rotation=-155;fillColor=#0A0A0A;" vertex="1" parent="1">
          <mxGeometry x="702" y="310" width="11" height="14" as="geometry" />
        </mxCell>
        <mxCell id="BaOSMcTjKNIHR1Z5g75Z-91" style="edgeStyle=orthogonalEdgeStyle;rounded=0;orthogonalLoop=1;jettySize=auto;html=1;exitX=1;exitY=0.5;exitDx=0;exitDy=0;entryX=-0.001;entryY=0.025;entryDx=0;entryDy=0;entryPerimeter=0;startArrow=none;startFill=0;endArrow=diamondThin;endFill=1;endSize=19;targetPerimeterSpacing=1;strokeWidth=1;" edge="1" parent="1" source="BaOSMcTjKNIHR1Z5g75Z-36" target="BaOSMcTjKNIHR1Z5g75Z-19">
          <mxGeometry relative="1" as="geometry">
            <Array as="points">
              <mxPoint x="305" y="434" />
              <mxPoint x="366" y="434" />
            </Array>
          </mxGeometry>
        </mxCell>
        <mxCell id="BaOSMcTjKNIHR1Z5g75Z-36" value="Edicion" style="swimlane;fontStyle=0;childLayout=stackLayout;horizontal=1;startSize=26;fillColor=none;horizontalStack=0;resizeParent=1;resizeParentMax=0;resizeLast=0;collapsible=1;marginBottom=0;" vertex="1" parent="1">
          <mxGeometry x="151" y="383" width="154" height="192" as="geometry" />
        </mxCell>
        <mxCell id="BaOSMcTjKNIHR1Z5g75Z-37" value="nombre: string&#xa;&#xa;fechaInicio: DtFecha&#xa;&#xa;fechaFin: DtFecha&#xa;&#xa;cupo: int&#xa;&#xa;fechaPublicacion: DtFecha&#xa;&#xa;&#xa;" style="text;strokeColor=none;fillColor=none;align=left;verticalAlign=top;spacingLeft=4;spacingRight=4;overflow=hidden;rotatable=0;points=[[0,0.5],[1,0.5]];portConstraint=eastwest;" vertex="1" parent="BaOSMcTjKNIHR1Z5g75Z-36">
          <mxGeometry y="26" width="154" height="146" as="geometry" />
        </mxCell>
        <mxCell id="BaOSMcTjKNIHR1Z5g75Z-80" value="Text" style="text;html=1;strokeColor=none;fillColor=none;align=center;verticalAlign=middle;whiteSpace=wrap;rounded=0;" vertex="1" parent="BaOSMcTjKNIHR1Z5g75Z-36">
          <mxGeometry y="172" width="154" height="20" as="geometry" />
        </mxCell>
        <mxCell id="BaOSMcTjKNIHR1Z5g75Z-92" value="1..*" style="text;html=1;strokeColor=none;fillColor=none;align=center;verticalAlign=middle;whiteSpace=wrap;rounded=0;" vertex="1" parent="1">
          <mxGeometry x="305" y="408" width="40" height="20" as="geometry" />
        </mxCell>
        <mxCell id="BaOSMcTjKNIHR1Z5g75Z-93" value="1" style="text;html=1;strokeColor=none;fillColor=none;align=center;verticalAlign=middle;whiteSpace=wrap;rounded=0;" vertex="1" parent="1">
          <mxGeometry x="402" y="408" width="40" height="20" as="geometry" />
        </mxCell>
        <mxCell id="BaOSMcTjKNIHR1Z5g75Z-94" value="de" style="text;html=1;strokeColor=none;fillColor=none;align=center;verticalAlign=middle;whiteSpace=wrap;rounded=0;" vertex="1" parent="1">
          <mxGeometry x="346" y="411" width="40" height="20" as="geometry" />
        </mxCell>
        <mxCell id="BaOSMcTjKNIHR1Z5g75Z-95" value="" style="triangle;whiteSpace=wrap;html=1;strokeWidth=1;rotation=0;fillColor=#0A0A0A;" vertex="1" parent="1">
          <mxGeometry x="381" y="414" width="11" height="14" as="geometry" />
        </mxCell>
      </root>
    </mxGraphModel>
  </diagram>
</mxfile>
